<?xml version="1.0" encoding="UTF-8"?>
<svg xmlns="http://www.w3.org/2000/svg" viewBox="0 0 1920 1080" width="1920" height="1080">
  <defs>
    <!-- Gradients -->
    <linearGradient id="bgGradient" x1="0%" y1="0%" x2="100%" y2="100%">
      <stop offset="0%" style="stop-color:#030308"/>
      <stop offset="100%" style="stop-color:#08080f"/>
    </linearGradient>

    <linearGradient id="cyanGlow" x1="0%" y1="0%" x2="0%" y2="100%">
      <stop offset="0%" style="stop-color:#00d4ff;stop-opacity:0.08"/>
      <stop offset="100%" style="stop-color:#00d4ff;stop-opacity:0"/>
    </linearGradient>

    <linearGradient id="routerGradient" x1="0%" y1="0%" x2="100%" y2="100%">
      <stop offset="0%" style="stop-color:#6366f1"/>
      <stop offset="100%" style="stop-color:#8b5cf6"/>
    </linearGradient>

    <linearGradient id="backendGradient" x1="0%" y1="0%" x2="100%" y2="100%">
      <stop offset="0%" style="stop-color:#10b981"/>
      <stop offset="100%" style="stop-color:#059669"/>
    </linearGradient>

    <linearGradient id="loadGradient" x1="0%" y1="0%" x2="100%" y2="0%">
      <stop offset="0%" style="stop-color:#10b981"/>
      <stop offset="80%" style="stop-color:#f59e0b"/>
      <stop offset="100%" style="stop-color:#ef4444"/>
    </linearGradient>

    <!-- Filters -->
    <filter id="glow" x="-50%" y="-50%" width="200%" height="200%">
      <feGaussianBlur stdDeviation="3" result="coloredBlur"/>
      <feMerge>
        <feMergeNode in="coloredBlur"/>
        <feMergeNode in="SourceGraphic"/>
      </feMerge>
    </filter>

    <filter id="softGlow" x="-50%" y="-50%" width="200%" height="200%">
      <feGaussianBlur stdDeviation="8" result="coloredBlur"/>
      <feMerge>
        <feMergeNode in="coloredBlur"/>
        <feMergeNode in="SourceGraphic"/>
      </feMerge>
    </filter>
  </defs>

  <!-- Background -->
  <rect width="1920" height="1080" fill="url(#bgGradient)"/>

  <!-- Grid Pattern -->
  <g opacity="0.03">
    <line x1="48" y1="0" x2="48" y2="1080" stroke="#00d4ff" stroke-width="1"/>
    <line x1="96" y1="0" x2="96" y2="1080" stroke="#00d4ff" stroke-width="1"/>
    <line x1="144" y1="0" x2="144" y2="1080" stroke="#00d4ff" stroke-width="1"/>
    <line x1="192" y1="0" x2="192" y2="1080" stroke="#00d4ff" stroke-width="1"/>
    <line x1="240" y1="0" x2="240" y2="1080" stroke="#00d4ff" stroke-width="1"/>
    <line x1="288" y1="0" x2="288" y2="1080" stroke="#00d4ff" stroke-width="1"/>
    <line x1="336" y1="0" x2="336" y2="1080" stroke="#00d4ff" stroke-width="1"/>
    <line x1="384" y1="0" x2="384" y2="1080" stroke="#00d4ff" stroke-width="1"/>
    <line x1="432" y1="0" x2="432" y2="1080" stroke="#00d4ff" stroke-width="1"/>
    <line x1="480" y1="0" x2="480" y2="1080" stroke="#00d4ff" stroke-width="1"/>
    <line x1="528" y1="0" x2="528" y2="1080" stroke="#00d4ff" stroke-width="1"/>
    <line x1="576" y1="0" x2="576" y2="1080" stroke="#00d4ff" stroke-width="1"/>
    <line x1="624" y1="0" x2="624" y2="1080" stroke="#00d4ff" stroke-width="1"/>
    <line x1="672" y1="0" x2="672" y2="1080" stroke="#00d4ff" stroke-width="1"/>
    <line x1="720" y1="0" x2="720" y2="1080" stroke="#00d4ff" stroke-width="1"/>
    <line x1="768" y1="0" x2="768" y2="1080" stroke="#00d4ff" stroke-width="1"/>
    <line x1="816" y1="0" x2="816" y2="1080" stroke="#00d4ff" stroke-width="1"/>
    <line x1="864" y1="0" x2="864" y2="1080" stroke="#00d4ff" stroke-width="1"/>
    <line x1="912" y1="0" x2="912" y2="1080" stroke="#00d4ff" stroke-width="1"/>
    <line x1="960" y1="0" x2="960" y2="1080" stroke="#00d4ff" stroke-width="1"/>
    <line x1="1008" y1="0" x2="1008" y2="1080" stroke="#00d4ff" stroke-width="1"/>
    <line x1="1056" y1="0" x2="1056" y2="1080" stroke="#00d4ff" stroke-width="1"/>
    <line x1="1104" y1="0" x2="1104" y2="1080" stroke="#00d4ff" stroke-width="1"/>
    <line x1="1152" y1="0" x2="1152" y2="1080" stroke="#00d4ff" stroke-width="1"/>
    <line x1="1200" y1="0" x2="1200" y2="1080" stroke="#00d4ff" stroke-width="1"/>
    <line x1="1248" y1="0" x2="1248" y2="1080" stroke="#00d4ff" stroke-width="1"/>
    <line x1="1296" y1="0" x2="1296" y2="1080" stroke="#00d4ff" stroke-width="1"/>
    <line x1="1344" y1="0" x2="1344" y2="1080" stroke="#00d4ff" stroke-width="1"/>
    <line x1="1392" y1="0" x2="1392" y2="1080" stroke="#00d4ff" stroke-width="1"/>
    <line x1="1440" y1="0" x2="1440" y2="1080" stroke="#00d4ff" stroke-width="1"/>
    <line x1="1488" y1="0" x2="1488" y2="1080" stroke="#00d4ff" stroke-width="1"/>
    <line x1="1536" y1="0" x2="1536" y2="1080" stroke="#00d4ff" stroke-width="1"/>
    <line x1="1584" y1="0" x2="1584" y2="1080" stroke="#00d4ff" stroke-width="1"/>
    <line x1="1632" y1="0" x2="1632" y2="1080" stroke="#00d4ff" stroke-width="1"/>
    <line x1="1680" y1="0" x2="1680" y2="1080" stroke="#00d4ff" stroke-width="1"/>
    <line x1="1728" y1="0" x2="1728" y2="1080" stroke="#00d4ff" stroke-width="1"/>
    <line x1="1776" y1="0" x2="1776" y2="1080" stroke="#00d4ff" stroke-width="1"/>
    <line x1="1824" y1="0" x2="1824" y2="1080" stroke="#00d4ff" stroke-width="1"/>
    <line x1="1872" y1="0" x2="1872" y2="1080" stroke="#00d4ff" stroke-width="1"/>

    <line x1="0" y1="48" x2="1920" y2="48" stroke="#00d4ff" stroke-width="1"/>
    <line x1="0" y1="96" x2="1920" y2="96" stroke="#00d4ff" stroke-width="1"/>
    <line x1="0" y1="144" x2="1920" y2="144" stroke="#00d4ff" stroke-width="1"/>
    <line x1="0" y1="192" x2="1920" y2="192" stroke="#00d4ff" stroke-width="1"/>
    <line x1="0" y1="240" x2="1920" y2="240" stroke="#00d4ff" stroke-width="1"/>
    <line x1="0" y1="288" x2="1920" y2="288" stroke="#00d4ff" stroke-width="1"/>
    <line x1="0" y1="336" x2="1920" y2="336" stroke="#00d4ff" stroke-width="1"/>
    <line x1="0" y1="384" x2="1920" y2="384" stroke="#00d4ff" stroke-width="1"/>
    <line x1="0" y1="432" x2="1920" y2="432" stroke="#00d4ff" stroke-width="1"/>
    <line x1="0" y1="480" x2="1920" y2="480" stroke="#00d4ff" stroke-width="1"/>
    <line x1="0" y1="528" x2="1920" y2="528" stroke="#00d4ff" stroke-width="1"/>
    <line x1="0" y1="576" x2="1920" y2="576" stroke="#00d4ff" stroke-width="1"/>
    <line x1="0" y1="624" x2="1920" y2="624" stroke="#00d4ff" stroke-width="1"/>
    <line x1="0" y1="672" x2="1920" y2="672" stroke="#00d4ff" stroke-width="1"/>
    <line x1="0" y1="720" x2="1920" y2="720" stroke="#00d4ff" stroke-width="1"/>
    <line x1="0" y1="768" x2="1920" y2="768" stroke="#00d4ff" stroke-width="1"/>
    <line x1="0" y1="816" x2="1920" y2="816" stroke="#00d4ff" stroke-width="1"/>
    <line x1="0" y1="864" x2="1920" y2="864" stroke="#00d4ff" stroke-width="1"/>
    <line x1="0" y1="912" x2="1920" y2="912" stroke="#00d4ff" stroke-width="1"/>
    <line x1="0" y1="960" x2="1920" y2="960" stroke="#00d4ff" stroke-width="1"/>
    <line x1="0" y1="1008" x2="1920" y2="1008" stroke="#00d4ff" stroke-width="1"/>
    <line x1="0" y1="1056" x2="1920" y2="1056" stroke="#00d4ff" stroke-width="1"/>
  </g>

  <!-- Radial Glow -->
  <ellipse cx="960" cy="0" rx="800" ry="400" fill="url(#cyanGlow)" opacity="0.5"/>

  <!-- ========== HEADER ========== -->
  <rect x="0" y="0" width="1920" height="64" fill="#08080f"/>
  <line x1="0" y1="63" x2="1920" y2="63" stroke="#ffffff" stroke-opacity="0.04" stroke-width="1"/>

  <!-- Logo Icon -->
  <rect x="32" y="16" width="32" height="32" rx="6" fill="#00d4ff" filter="url(#glow)"/>
  <path d="M43 24 Q43 32, 51 32 L53 32 Q53 40, 45 40" fill="none" stroke="#08080f" stroke-width="2.5" stroke-linecap="round"/>

  <!-- Logo Text -->
  <text x="76" y="38" font-family="Inter, -apple-system, sans-serif" font-size="22" font-weight="600" fill="#ffffff" letter-spacing="-0.5">Customer Service Platform</text>

  <!-- LIVE Badge -->
  <rect x="350" y="20" width="50" height="20" rx="10" fill="#00d4ff" fill-opacity="0.15" stroke="#00d4ff" stroke-opacity="0.4" stroke-width="1"/>
  <circle cx="362" cy="30" r="3" fill="#00d4ff">
    <animate attributeName="opacity" values="1;0.4;1" dur="2s" repeatCount="indefinite"/>
  </circle>
  <text x="370" y="34" font-family="Inter, -apple-system, sans-serif" font-size="10" font-weight="600" fill="#00d4ff" letter-spacing="0.5">LIVE</text>

  <!-- Status Indicator -->
  <rect x="1600" y="18" width="120" height="28" rx="12" fill="#10b981" fill-opacity="0.12" stroke="#10b981" stroke-opacity="0.3" stroke-width="1"/>
  <circle cx="1616" cy="32" r="4" fill="#10b981">
    <animate attributeName="r" values="4;5;4" dur="2s" repeatCount="indefinite"/>
  </circle>
  <text x="1628" y="36" font-family="Inter, -apple-system, sans-serif" font-size="13" font-weight="500" fill="#10b981">系统正常</text>

  <!-- Last Update -->
  <text x="1740" y="28" font-family="Inter, -apple-system, sans-serif" font-size="9" fill="#6b6b7d" letter-spacing="0.5">最后更新</text>
  <text x="1740" y="44" font-family="SF Mono, monospace" font-size="13" fill="#9898a9">14:32:08</text>

  <!-- Refresh Button -->
  <rect x="1844" y="18" width="36" height="28" rx="8" fill="#1a1a28" stroke="#ffffff" stroke-opacity="0.08" stroke-width="1"/>
  <path d="M1862 26 A6 6 0 1 1 1856 32" fill="none" stroke="#9898a9" stroke-width="2" stroke-linecap="round"/>
  <polygon points="1854,28 1858,28 1856,32" fill="#9898a9"/>

  <!-- ========== SIDEBAR ========== -->
  <!-- Session Stats Card -->
  <g id="session-card">
    <rect x="20" y="80" width="260" height="180" rx="12" fill="#14141f" stroke="#ffffff" stroke-opacity="0.08" stroke-width="1"/>
    <rect x="20" y="80" width="260" height="1" fill="#00d4ff" fill-opacity="0" stroke="#00d4ff" stroke-opacity="0">
      <animate attributeName="stroke-opacity" values="0;0.5;0" dur="3s" repeatCount="indefinite"/>
    </rect>

    <!-- Icon -->
    <rect x="36" y="96" width="32" height="32" rx="6" fill="#10b981" fill-opacity="0.15"/>
    <path d="M48 104 L48 122 M48 104 Q56 104, 56 112 L56 118 Q56 122, 52 122 L44 122 Q40 122, 40 118 L40 112 Q40 104, 48 104" fill="none" stroke="#10b981" stroke-width="2" stroke-linecap="round"/>

    <!-- Title -->
    <text x="80" y="116" font-family="Inter, -apple-system, sans-serif" font-size="12" font-weight="600" fill="#9898a9" letter-spacing="0.5">会话统计</text>

    <!-- Stats -->
    <g transform="translate(36, 145)">
      <text font-family="Inter, -apple-system, sans-serif" font-size="12" fill="#6b6b7d">等待中</text>
      <rect x="160" y="-12" width="36" height="20" rx="4" fill="#f59e0b" fill-opacity="0.12"/>
      <text x="172" y="4" font-family="SF Mono, monospace" font-size="12" font-weight="600" fill="#f59e0b" text-anchor="middle">3</text>
    </g>

    <g transform="translate(36, 175)">
      <text font-family="Inter, -apple-system, sans-serif" font-size="12" fill="#6b6b7d">进行中</text>
      <rect x="160" y="-12" width="36" height="20" rx="4" fill="#10b981" fill-opacity="0.12"/>
      <text x="172" y="4" font-family="SF Mono, monospace" font-size="12" font-weight="600" fill="#10b981" text-anchor="middle">12</text>
    </g>

    <g transform="translate(36, 205)">
      <text font-family="Inter, -apple-system, sans-serif" font-size="12" fill="#6b6b7d">总会话</text>
      <rect x="160" y="-12" width="36" height="20" rx="4" fill="#00d4ff" fill-opacity="0.12"/>
      <text x="172" y="4" font-family="SF Mono, monospace" font-size="12" font-weight="600" fill="#00d4ff" text-anchor="middle">156</text>
    </g>
  </g>

  <!-- Agent Stats Card -->
  <g id="agent-card">
    <rect x="20" y="272" width="260" height="180" rx="12" fill="#14141f" stroke="#ffffff" stroke-opacity="0.08" stroke-width="1"/>

    <!-- Icon -->
    <rect x="36" y="288" width="32" height="32" rx="6" fill="#3b82f6" fill-opacity="0.15"/>
    <circle cx="52" cy="298" r="6" fill="none" stroke="#3b82f6" stroke-width="2"/>
    <path d="M44 312 Q44 306, 52 306 Q60 306, 60 312" fill="none" stroke="#3b82f6" stroke-width="2" stroke-linecap="round"/>
    <path d="M62 308 Q66 306, 66 302" fill="none" stroke="#3b82f6" stroke-width="1.5" stroke-linecap="round"/>

    <!-- Title -->
    <text x="80" y="308" font-family="Inter, -apple-system, sans-serif" font-size="12" font-weight="600" fill="#9898a9" letter-spacing="0.5">坐席状态</text>

    <!-- Stats -->
    <g transform="translate(36, 337)">
      <text font-family="Inter, -apple-system, sans-serif" font-size="12" fill="#6b6b7d">在线</text>
      <rect x="160" y="-12" width="36" height="20" rx="4" fill="#10b981" fill-opacity="0.12"/>
      <text x="172" y="4" font-family="SF Mono, monospace" font-size="12" font-weight="600" fill="#10b981" text-anchor="middle">8</text>
    </g>

    <g transform="translate(36, 367)">
      <text font-family="Inter, -apple-system, sans-serif" font-size="12" fill="#6b6b7d">忙碌</text>
      <rect x="160" y="-12" width="36" height="20" rx="4" fill="#f59e0b" fill-opacity="0.12"/>
      <text x="172" y="4" font-family="SF Mono, monospace" font-size="12" font-weight="600" fill="#f59e0b" text-anchor="middle">3</text>
    </g>

    <g transform="translate(36, 397)">
      <text font-family="Inter, -apple-system, sans-serif" font-size="12" fill="#6b6b7d">离线</text>
      <rect x="160" y="-12" width="36" height="20" rx="4" fill="#ef4444" fill-opacity="0.12"/>
      <text x="172" y="4" font-family="SF Mono, monospace" font-size="12" font-weight="600" fill="#ef4444" text-anchor="middle">2</text>
    </g>

    <!-- Agent Dots -->
    <g transform="translate(36, 428)">
      <circle cx="8" cy="0" r="4" fill="#10b981"/>
      <circle cx="20" cy="0" r="4" fill="#10b981"/>
      <circle cx="32" cy="0" r="4" fill="#10b981"/>
      <circle cx="44" cy="0" r="4" fill="#10b981"/>
      <circle cx="56" cy="0" r="4" fill="#10b981"/>
      <circle cx="68" cy="0" r="4" fill="#10b981"/>
      <circle cx="80" cy="0" r="4" fill="#10b981"/>
      <circle cx="92" cy="0" r="4" fill="#10b981"/>
      <circle cx="104" cy="0" r="4" fill="#f59e0b"/>
      <circle cx="116" cy="0" r="4" fill="#f59e0b"/>
      <circle cx="128" cy="0" r="4" fill="#f59e0b"/>
      <circle cx="140" cy="0" r="4" fill="#ef4444"/>
      <circle cx="152" cy="0" r="4" fill="#ef4444"/>
    </g>
  </g>

  <!-- Backend Nodes Card -->
  <g id="backend-card">
    <rect x="20" y="464" width="260" height="100" rx="12" fill="#14141f" stroke="#ffffff" stroke-opacity="0.08" stroke-width="1"/>

    <!-- Icon -->
    <rect x="36" y="480" width="32" height="32" rx="6" fill="#00d4ff" fill-opacity="0.15"/>
    <rect x="42" y="488" width="20" height="7" rx="2" fill="none" stroke="#00d4ff" stroke-width="1.5"/>
    <rect x="42" y="498" width="20" height="7" rx="2" fill="none" stroke="#00d4ff" stroke-width="1.5"/>
    <circle cx="46" cy="491.5" r="1.5" fill="#00d4ff"/>
    <circle cx="46" cy="501.5" r="1.5" fill="#00d4ff"/>

    <!-- Title -->
    <text x="80" y="500" font-family="Inter, -apple-system, sans-serif" font-size="12" font-weight="600" fill="#9898a9" letter-spacing="0.5">后台节点</text>

    <!-- Number -->
    <text x="36" y="540" font-family="SF Mono, monospace" font-size="36" font-weight="700" fill="#ffffff">3</text>
    <text x="68" y="540" font-family="Inter, -apple-system, sans-serif" font-size="18" fill="#6b6b7d">/</text>
    <text x="78" y="540" font-family="SF Mono, monospace" font-size="16" fill="#6b6b7d">3</text>
    <text x="36" y="555" font-family="Inter, -apple-system, sans-serif" font-size="9" fill="#6b6b7d">在线 / 注册</text>
  </g>

  <!-- Netty Connections Card -->
  <g id="netty-card">
    <rect x="20" y="576" width="260" height="100" rx="12" fill="#14141f" stroke="#ffffff" stroke-opacity="0.08" stroke-width="1"/>

    <!-- Icon -->
    <rect x="36" y="592" width="32" height="32" rx="6" fill="#3b82f6" fill-opacity="0.15"/>
    <polyline points="42,608 48,602 54,610 60,604 66,612" fill="none" stroke="#3b82f6" stroke-width="2" stroke-linecap="round" stroke-linejoin="round"/>

    <!-- Title -->
    <text x="80" y="612" font-family="Inter, -apple-system, sans-serif" font-size="12" font-weight="600" fill="#9898a9" letter-spacing="0.5">Netty 连接</text>

    <!-- Number -->
    <text x="36" y="652" font-family="SF Mono, monospace" font-size="36" font-weight="700" fill="#ffffff">247</text>
    <text x="36" y="667" font-family="Inter, -apple-system, sans-serif" font-size="9" fill="#6b6b7d">活跃连接</text>
  </g>

  <!-- ========== MAIN CONTENT ========== -->
  <!-- Topology Section -->
  <g id="topology">
    <rect x="300" y="80" width="1600" height="340" rx="12" fill="#14141f" stroke="#ffffff" stroke-opacity="0.08" stroke-width="1"/>

    <!-- Header -->
    <text x="320" y="108" font-family="Inter, -apple-system, sans-serif" font-size="14" font-weight="600" fill="#ffffff">
      <tspan>&#9881;</tspan> 系统架构
    </text>

    <!-- Legend -->
    <circle cx="460" cy="104" r="4" fill="#00d4ff" filter="url(#glow)"/>
    <text x="470" y="108" font-family="Inter, -apple-system, sans-serif" font-size="11" fill="#6b6b7d">客户前端</text>

    <circle cx="560" cy="104" r="4" fill="#10b981"/>
    <text x="570" y="108" font-family="Inter, -apple-system, sans-serif" font-size="11" fill="#6b6b7d">已连接</text>

    <circle cx="640" cy="104" r="4" fill="#ef4444"/>
    <text x="650" y="108" font-family="Inter, -apple-system, sans-serif" font-size="11" fill="#6b6b7d">未连接</text>

    <!-- Connection Lines -->
    <line x1="1100" y1="250" x2="900" y2="170" stroke="#10b981" stroke-width="2" stroke-opacity="0.5"/>
    <line x1="1100" y1="250" x2="1300" y2="170" stroke="#10b981" stroke-width="2" stroke-opacity="0.5"/>
    <line x1="1100" y1="250" x2="900" y2="330" stroke="#10b981" stroke-width="2" stroke-opacity="0.5"/>
    <line x1="1100" y1="250" x2="1300" y2="330" stroke="#ef4444" stroke-width="2" stroke-opacity="0.3" stroke-dasharray="6,4"/>

    <!-- Stats Overlay -->
    <rect x="320" y="130" width="140" height="70" rx="6" fill="#08080f" fill-opacity="0.9" stroke="#00d4ff" stroke-opacity="0.3" stroke-width="1"/>
    <text x="332" y="152" font-family="Inter, -apple-system, sans-serif" font-size="11" fill="#6b6b7d">活跃会话</text>
    <text x="332" y="176" font-family="SF Mono, monospace" font-size="20" font-weight="600" fill="#10b981">12</text>
    <text x="370" y="176" font-family="Inter, -apple-system, sans-serif" font-size="12" fill="#f59e0b">等待 3</text>
    <text x="332" y="192" font-family="Inter, -apple-system, sans-serif" font-size="11" fill="#6b6b7d">在线坐席</text>
    <text x="410" y="192" font-family="SF Mono, monospace" font-size="14" fill="#3b82f6">8/13</text>

    <!-- Router Node -->
    <rect x="1030" y="220" width="140" height="60" rx="8" fill="url(#routerGradient)" filter="url(#glow)"/>
    <text x="1100" y="245" font-family="Inter, -apple-system, sans-serif" font-size="11" font-weight="600" fill="#ffffff" text-anchor="middle">Customer Frontend</text>
    <text x="1100" y="262" font-family="SF Mono, monospace" font-size="10" fill="#a1a1aa" text-anchor="middle">Router Node</text>

    <!-- Backend Nodes -->
    <g id="backend-1">
      <rect x="840" y="145" width="100" height="50" rx="6" fill="url(#backendGradient)" stroke="#10b981" stroke-width="2"/>
      <text x="890" y="170" font-family="SF Mono, monospace" font-size="11" fill="#ffffff" text-anchor="middle">backend-1</text>
      <text x="890" y="186" font-family="SF Mono, monospace" font-size="9" fill="#10b981" text-anchor="middle">CONNECTED</text>
    </g>

    <g id="backend-2">
      <rect x="1240" y="145" width="100" height="50" rx="6" fill="url(#backendGradient)" stroke="#10b981" stroke-width="2"/>
      <text x="1290" y="170" font-family="SF Mono, monospace" font-size="11" fill="#ffffff" text-anchor="middle">backend-2</text>
      <text x="1290" y="186" font-family="SF Mono, monospace" font-size="9" fill="#10b981" text-anchor="middle">CONNECTED</text>
    </g>

    <g id="backend-3">
      <rect x="840" y="305" width="100" height="50" rx="6" fill="url(#backendGradient)" stroke="#10b981" stroke-width="2"/>
      <text x="890" y="330" font-family="SF Mono, monospace" font-size="11" fill="#ffffff" text-anchor="middle">backend-3</text>
      <text x="890" y="346" font-family="SF Mono, monospace" font-size="9" fill="#10b981" text-anchor="middle">CONNECTED</text>
    </g>

    <g id="backend-4">
      <rect x="1240" y="305" width="100" height="50" rx="6" fill="#374151" stroke="#ef4444" stroke-width="2"/>
      <text x="1290" y="330" font-family="SF Mono, monospace" font-size="11" fill="#ffffff" text-anchor="middle">backend-4</text>
      <text x="1290" y="346" font-family="SF Mono, monospace" font-size="9" fill="#ef4444" text-anchor="middle">DISCONNECTED</text>
    </g>
  </g>

  <!-- Sessions Section -->
  <g id="sessions">
    <rect x="300" y="436" width="1600" height="260" rx="12" fill="#14141f" stroke="#ffffff" stroke-opacity="0.08" stroke-width="1"/>

    <!-- Header -->
    <text x="320" y="464" font-family="Inter, -apple-system, sans-serif" font-size="14" font-weight="600" fill="#ffffff">&#128172; 会话监控</text>

    <rect x="420" y="450" width="80" height="22" rx="10" fill="#1a1a28"/>
    <text x="440" y="466" font-family="SF Mono, monospace" font-size="11" fill="#6b6b7d">156 个会话</text>

    <!-- Session Cards -->
    <!-- Session 1 - Waiting -->
    <g transform="translate(320, 490)">
      <rect width="280" height="85" rx="8" fill="#1a1a28" stroke="#ffffff" stroke-opacity="0.04" stroke-width="1"/>
      <line x1="3" y1="8" x2="3" y2="77" stroke="#f59e0b" stroke-width="3" stroke-linecap="round"/>

      <rect x="16" y="12" width="24" height="24" rx="4" fill="#f59e0b" fill-opacity="0.12"/>
      <text x="52" y="28" font-family="Inter, -apple-system, sans-serif" font-size="13" font-weight="600" fill="#ffffff">sess-7a8b3c2d</text>
      <text x="52" y="44" font-family="SF Mono, monospace" font-size="10" fill="#6b6b7d">访客用户-001</text>

      <rect x="206" y="12" width="62" height="20" rx="10" fill="#f59e0b" fill-opacity="0.12"/>
      <circle cx="218" cy="22" r="2.5" fill="#f59e0b"/>
      <text x="226" y="26" font-family="Inter, -apple-system, sans-serif" font-size="10" font-weight="500" fill="#f59e0b">等待中</text>

      <text x="16" y="64" font-family="Inter, -apple-system, sans-serif" font-size="9" fill="#6b6b7d">坐席</text>
      <text x="16" y="78" font-family="SF Mono, monospace" font-size="11" fill="#9898a9">未分配</text>

      <text x="100" y="64" font-family="Inter, -apple-system, sans-serif" font-size="9" fill="#6b6b7d">时长</text>
      <text x="100" y="78" font-family="SF Mono, monospace" font-size="11" fill="#9898a9">2分15秒</text>
    </g>

    <!-- Session 2 - Active -->
    <g transform="translate(616, 490)">
      <rect width="280" height="85" rx="8" fill="#1a1a28" stroke="#ffffff" stroke-opacity="0.04" stroke-width="1"/>
      <line x1="3" y1="8" x2="3" y2="77" stroke="#10b981" stroke-width="3" stroke-linecap="round"/>

      <rect x="16" y="12" width="24" height="24" rx="4" fill="#10b981" fill-opacity="0.12"/>
      <text x="52" y="28" font-family="Inter, -apple-system, sans-serif" font-size="13" font-weight="600" fill="#ffffff">sess-9f4e1a5b</text>
      <text x="52" y="44" font-family="SF Mono, monospace" font-size="10" fill="#6b6b7d">张三</text>

      <rect x="206" y="12" width="62" height="20" rx="10" fill="#10b981" fill-opacity="0.12"/>
      <circle cx="218" cy="22" r="2.5" fill="#10b981"/>
      <text x="226" y="26" font-family="Inter, -apple-system, sans-serif" font-size="10" font-weight="500" fill="#10b981">进行中</text>

      <text x="16" y="64" font-family="Inter, -apple-system, sans-serif" font-size="9" fill="#6b6b7d">坐席</text>
      <text x="16" y="78" font-family="SF Mono, monospace" font-size="11" fill="#9898a9">agent-bob</text>

      <text x="100" y="64" font-family="Inter, -apple-system, sans-serif" font-size="9" fill="#6b6b7d">时长</text>
      <text x="100" y="78" font-family="SF Mono, monospace" font-size="11" fill="#9898a9">8分32秒</text>
    </g>

    <!-- Session 3 - Active -->
    <g transform="translate(912, 490)">
      <rect width="280" height="85" rx="8" fill="#1a1a28" stroke="#ffffff" stroke-opacity="0.04" stroke-width="1"/>
      <line x1="3" y1="8" x2="3" y2="77" stroke="#10b981" stroke-width="3" stroke-linecap="round"/>

      <rect x="16" y="12" width="24" height="24" rx="4" fill="#10b981" fill-opacity="0.12"/>
      <text x="52" y="28" font-family="Inter, -apple-system, sans-serif" font-size="13" font-weight="600" fill="#ffffff">sess-2c7d9e4f</text>
      <text x="52" y="44" font-family="SF Mono, monospace" font-size="10" fill="#6b6b7d">李四</text>

      <rect x="206" y="12" width="62" height="20" rx="10" fill="#10b981" fill-opacity="0.12"/>
      <circle cx="218" cy="22" r="2.5" fill="#10b981"/>
      <text x="226" y="26" font-family="Inter, -apple-system, sans-serif" font-size="10" font-weight="500" fill="#10b981">进行中</text>

      <text x="16" y="64" font-family="Inter, -apple-system, sans-serif" font-size="9" fill="#6b6b7d">坐席</text>
      <text x="16" y="78" font-family="SF Mono, monospace" font-size="11" fill="#9898a9">agent-carol</text>

      <text x="100" y="64" font-family="Inter, -apple-system, sans-serif" font-size="9" fill="#6b6b7d">时长</text>
      <text x="100" y="78" font-family="SF Mono, monospace" font-size="11" fill="#9898a9">15分08秒</text>
    </g>
  </g>

  <!-- Agents Section -->
  <g id="agents">
    <rect x="300" y="712" width="1600" height="200" rx="12" fill="#14141f" stroke="#ffffff" stroke-opacity="0.08" stroke-width="1"/>

    <!-- Header -->
    <text x="320" y="740" font-family="Inter, -apple-system, sans-serif" font-size="14" font-weight="600" fill="#ffffff">&#128101; 坐席列表</text>

    <rect x="420" y="726" width="75" height="22" rx="10" fill="#1a1a28"/>
    <text x="438" y="742" font-family="SF Mono, monospace" font-size="11" fill="#6b6b7d">13 位坐席</text>

    <!-- Agent Cards -->
    <!-- Agent 1 - Online -->
    <g transform="translate(320, 766)">
      <rect width="280" height="70" rx="8" fill="#1a1a28" stroke="#ffffff" stroke-opacity="0.04" stroke-width="1"/>
      <line x1="3" y1="8" x2="3" y2="62" stroke="#10b981" stroke-width="3" stroke-linecap="round"/>

      <rect x="16" y="12" width="24" height="24" rx="4" fill="#3b82f6" fill-opacity="0.12"/>
      <text x="52" y="28" font-family="Inter, -apple-system, sans-serif" font-size="13" font-weight="600" fill="#ffffff">Alice Chen</text>
      <text x="52" y="44" font-family="SF Mono, monospace" font-size="10" fill="#6b6b7d">agent-alice</text>

      <rect x="210" y="12" width="58" height="20" rx="10" fill="#10b981" fill-opacity="0.12"/>
      <circle cx="222" cy="22" r="2.5" fill="#10b981"/>
      <text x="230" y="26" font-family="Inter, -apple-system, sans-serif" font-size="10" font-weight="500" fill="#10b981">在线</text>

      <text x="16" y="58" font-family="Inter, -apple-system, sans-serif" font-size="9" fill="#6b6b7d">负载</text>
      <rect x="50" y="52" width="80" height="4" rx="2" fill="#0d0d16"/>
      <rect x="50" y="52" width="32" height="4" rx="2" fill="url(#loadGradient)"/>
      <text x="138" y="58" font-family="SF Mono, monospace" font-size="10" fill="#6b6b7d">40%</text>

      <text x="180" y="58" font-family="Inter, -apple-system, sans-serif" font-size="9" fill="#6b6b7d">会话</text>
      <text x="180" y="70" font-family="SF Mono, monospace" font-size="10" fill="#9898a9">2/5</text>
    </g>

    <!-- Agent 2 - Busy -->
    <g transform="translate(616, 766)">
      <rect width="280" height="70" rx="8" fill="#1a1a28" stroke="#ffffff" stroke-opacity="0.04" stroke-width="1"/>
      <line x1="3" y1="8" x2="3" y2="62" stroke="#f59e0b" stroke-width="3" stroke-linecap="round"/>

      <rect x="16" y="12" width="24" height="24" rx="4" fill="#3b82f6" fill-opacity="0.12"/>
      <text x="52" y="28" font-family="Inter, -apple-system, sans-serif" font-size="13" font-weight="600" fill="#ffffff">Bob Wang</text>
      <text x="52" y="44" font-family="SF Mono, monospace" font-size="10" fill="#6b6b7d">agent-bob</text>

      <rect x="210" y="12" width="58" height="20" rx="10" fill="#f59e0b" fill-opacity="0.12"/>
      <circle cx="222" cy="22" r="2.5" fill="#f59e0b"/>
      <text x="230" y="26" font-family="Inter, -apple-system, sans-serif" font-size="10" font-weight="500" fill="#f59e0b">忙碌</text>

      <text x="16" y="58" font-family="Inter, -apple-system, sans-serif" font-size="9" fill="#6b6b7d">负载</text>
      <rect x="50" y="52" width="80" height="4" rx="2" fill="#0d0d16"/>
      <rect x="50" y="52" width="80" height="4" rx="2" fill="url(#loadGradient)"/>
      <text x="138" y="58" font-family="SF Mono, monospace" font-size="10" fill="#f59e0b">100%</text>

      <text x="180" y="58" font-family="Inter, -apple-system, sans-serif" font-size="9" fill="#6b6b7d">会话</text>
      <text x="180" y="70" font-family="SF Mono, monospace" font-size="10" fill="#9898a9">5/5</text>
    </g>

    <!-- Agent 3 - Online -->
    <g transform="translate(912, 766)">
      <rect width="280" height="70" rx="8" fill="#1a1a28" stroke="#ffffff" stroke-opacity="0.04" stroke-width="1"/>
      <line x1="3" y1="8" x2="3" y2="62" stroke="#10b981" stroke-width="3" stroke-linecap="round"/>

      <rect x="16" y="12" width="24" height="24" rx="4" fill="#3b82f6" fill-opacity="0.12"/>
      <text x="52" y="28" font-family="Inter, -apple-system, sans-serif" font-size="13" font-weight="600" fill="#ffffff">Carol Liu</text>
      <text x="52" y="44" font-family="SF Mono, monospace" font-size="10" fill="#6b6b7d">agent-carol</text>

      <rect x="210" y="12" width="58" height="20" rx="10" fill="#10b981" fill-opacity="0.12"/>
      <circle cx="222" cy="22" r="2.5" fill="#10b981"/>
      <text x="230" y="26" font-family="Inter, -apple-system, sans-serif" font-size="10" font-weight="500" fill="#10b981">在线</text>

      <text x="16" y="58" font-family="Inter, -apple-system, sans-serif" font-size="9" fill="#6b6b7d">负载</text>
      <rect x="50" y="52" width="80" height="4" rx="2" fill="#0d0d16"/>
      <rect x="50" y="52" width="48" height="4" rx="2" fill="url(#loadGradient)"/>
      <text x="138" y="58" font-family="SF Mono, monospace" font-size="10" fill="#6b6b7d">60%</text>

      <text x="180" y="58" font-family="Inter, -apple-system, sans-serif" font-size="9" fill="#6b6b7d">会话</text>
      <text x="180" y="70" font-family="SF Mono, monospace" font-size="10" fill="#9898a9">3/5</text>
    </g>
  </g>

  <!-- ========== FOOTER ========== -->
  <line x1="0" y1="940" x2="1920" y2="940" stroke="#ffffff" stroke-opacity="0.04" stroke-width="1"/>

  <text x="32" y="962" font-family="Inter, -apple-system, sans-serif" font-size="11" fill="#6b6b7d">
    <tspan>&#9202;</tspan> 自动刷新: 5秒
  </text>

  <text x="1850" y="962" font-family="Inter, -apple-system, sans-serif" font-size="11" fill="#6b6b7d" text-anchor="end">Customer Service Platform v1.0.0</text>
</svg>