<svg xmlns="http://www.w3.org/2000/svg" viewBox="0 0 1100 720" width="1100" height="720" style="background:#0f172a;border-radius:12px;font-family:system-ui,-apple-system,sans-serif">
  <defs>
    <linearGradient id="gAc" x1="0" y1="0" x2="1" y2="0"><stop offset="0%" stop-color="#0ea5e9" stop-opacity="0.15"/><stop offset="100%" stop-color="#0ea5e9" stop-opacity="0.05"/></linearGradient>
    <linearGradient id="gOr" x1="0" y1="0" x2="1" y2="0"><stop offset="0%" stop-color="#f59e0b" stop-opacity="0.15"/><stop offset="100%" stop-color="#f59e0b" stop-opacity="0.05"/></linearGradient>
    <linearGradient id="gAi" x1="0" y1="0" x2="1" y2="0"><stop offset="0%" stop-color="#10b981" stop-opacity="0.15"/><stop offset="100%" stop-color="#10b981" stop-opacity="0.05"/></linearGradient>
    <linearGradient id="gDt" x1="0" y1="0" x2="1" y2="0"><stop offset="0%" stop-color="#ec4899" stop-opacity="0.15"/><stop offset="100%" stop-color="#ec4899" stop-opacity="0.05"/></linearGradient>
  </defs>

  <!-- Title -->
  <text x="550" y="36" text-anchor="middle" fill="#f1f5f9" font-size="20" font-weight="bold" letter-spacing="1">SmartCS 系统架构</text>

  <!-- ===== LEFT SIDEBAR ===== -->
  <!-- Observability -->
  <rect x="10" y="56" width="140" height="130" rx="8" fill="rgba(30,41,59,0.6)" stroke="#334155" stroke-width="1"/>
  <text x="80" y="78" text-anchor="middle" fill="#94a3b8" font-size="11" font-weight="bold">📊 可观测性</text>
  <rect x="18" y="88" width="124" height="22" rx="4" fill="rgba(16,185,129,0.12)" stroke="rgba(16,185,129,0.35)"/><text x="80" y="103" text-anchor="middle" fill="#6ee7b7" font-size="9.5" font-weight="600">Prometheus + Grafana</text>
  <rect x="18" y="114" width="124" height="22" rx="4" fill="rgba(15,23,42,0.5)" stroke="rgba(51,65,85,0.5)"/><text x="80" y="129" text-anchor="middle" fill="#cbd5e1" font-size="9.5">Structured Logging</text>
  <rect x="18" y="140" width="124" height="22" rx="4" fill="rgba(15,23,42,0.5)" stroke="rgba(51,65,85,0.5)"/><text x="80" y="155" text-anchor="middle" fill="#cbd5e1" font-size="9.5">Distributed Tracing</text>

  <!-- Ops -->
  <rect x="10" y="194" width="140" height="105" rx="8" fill="rgba(30,41,59,0.6)" stroke="#334155" stroke-width="1"/>
  <text x="80" y="216" text-anchor="middle" fill="#94a3b8" font-size="11" font-weight="bold">⚙️ 运维</text>
  <rect x="18" y="226" width="124" height="22" rx="4" fill="rgba(15,23,42,0.5)" stroke="rgba(51,65,85,0.5)"/><text x="80" y="241" text-anchor="middle" fill="#cbd5e1" font-size="9.5">Docker Compose</text>
  <rect x="18" y="252" width="124" height="22" rx="4" fill="rgba(15,23,42,0.5)" stroke="rgba(51,65,85,0.5)"/><text x="80" y="267" text-anchor="middle" fill="#cbd5e1" font-size="9.5">K8s / Helm</text>
  <rect x="18" y="278" width="124" height="22" rx="4" fill="rgba(15,23,42,0.5)" stroke="rgba(51,65,85,0.5)"/><text x="80" y="293" text-anchor="middle" fill="#cbd5e1" font-size="9.5">GitHub Actions CI</text>

  <!-- Auth -->
  <rect x="10" y="307" width="140" height="78" rx="8" fill="rgba(30,41,59,0.6)" stroke="#334155" stroke-width="1"/>
  <text x="80" y="329" text-anchor="middle" fill="#94a3b8" font-size="11" font-weight="bold">🔑 认证</text>
  <rect x="18" y="338" width="124" height="22" rx="4" fill="rgba(15,23,42,0.5)" stroke="rgba(51,65,85,0.5)"/><text x="80" y="354" text-anchor="middle" fill="#cbd5e1" font-size="9.5">JWT Access Token</text>
  <rect x="18" y="364" width="124" height="18" rx="4" fill="rgba(15,23,42,0.5)" stroke="rgba(51,65,85,0.5)"/><text x="80" y="377" text-anchor="middle" fill="#cbd5e1" font-size="9">Admin / Agent / Customer</text>

  <!-- ===== MAIN CONTENT ===== -->
  <!-- Layer 1: Access -->
  <rect x="160" y="56" width="760" height="62" rx="8" fill="url(#gAc)" stroke="#0ea5e9" stroke-width="1"/>
  <text x="540" y="76" text-anchor="middle" fill="#7dd3fc" font-size="11" font-weight="bold" letter-spacing="0.5">🎯 接入层 — Access Layer</text>
  <rect x="172" y="84" width="170" height="26" rx="6" fill="rgba(14,165,233,0.12)" stroke="#0ea5e9" stroke-width="0.8"/><text x="257" y="101" text-anchor="middle" fill="#7dd3fc" font-size="10" font-weight="600">💬 客户对话 · Vue 3</text>
  <rect x="352" y="84" width="188" height="26" rx="6" fill="rgba(14,165,233,0.12)" stroke="#0ea5e9" stroke-width="0.8"/><text x="446" y="101" text-anchor="middle" fill="#7dd3fc" font-size="10" font-weight="600">🧑‍💼 坐席工作台 · Vue 3</text>
  <rect x="550" y="84" width="170" height="26" rx="6" fill="rgba(14,165,233,0.12)" stroke="#0ea5e9" stroke-width="0.8"/><text x="635" y="101" text-anchor="middle" fill="#7dd3fc" font-size="10" font-weight="600">⚙️ 运营后台 · Vue 3</text>
  <rect x="730" y="84" width="178" height="26" rx="6" fill="rgba(14,165,233,0.12)" stroke="#0ea5e9" stroke-width="0.8"/><text x="819" y="101" text-anchor="middle" fill="#7dd3fc" font-size="10" font-weight="600">🔌 在线接入 · Java</text>

  <!-- Layer 2: Orchestration -->
  <rect x="160" y="126" width="760" height="90" rx="8" fill="url(#gOr)" stroke="#f59e0b" stroke-width="1"/>
  <text x="540" y="146" text-anchor="middle" fill="#fcd34d" font-size="11" font-weight="bold" letter-spacing="0.5">⚡ 编排层 — Orchestration Layer · FastAPI + LangGraph</text>
  <rect x="172" y="155" width="366" height="52" rx="6" fill="rgba(250,204,21,0.12)" stroke="#facc15" stroke-width="0.8"/>
  <text x="355" y="174" text-anchor="middle" fill="#fef08a" font-size="10.5" font-weight="600">🤖 Bot Service :8000</text>
  <text x="355" y="192" text-anchor="middle" fill="#fcd34d" font-size="8.5" font-weight="400">Intent → Route → RAG → LLM · KG · Slot · Customer Memory</text>
  <rect x="550" y="155" width="358" height="52" rx="6" fill="rgba(250,204,21,0.12)" stroke="#facc15" stroke-width="0.8"/>
  <text x="729" y="174" text-anchor="middle" fill="#fef08a" font-size="10.5" font-weight="600">🧠 Assist Service :8001 · WebSocket</text>
  <text x="729" y="192" text-anchor="middle" fill="#fcd34d" font-size="8.5" font-weight="400">OE Pipeline D1-D3/E1-E3 · Arbitrator · PushTracker · Session SM</text>

  <!-- Layer 3: AI Capability -->
  <rect x="160" y="224" width="760" height="62" rx="8" fill="url(#gAi)" stroke="#10b981" stroke-width="1"/>
  <text x="540" y="244" text-anchor="middle" fill="#6ee7b7" font-size="11" font-weight="bold" letter-spacing="0.5">🧬 AI 能力层 — gRPC Services</text>
  <rect x="172" y="252" width="240" height="26" rx="6" fill="rgba(16,185,129,0.12)" stroke="#10b981" stroke-width="0.8"/><text x="292" y="269" text-anchor="middle" fill="#6ee7b7" font-size="10" font-weight="600">🏷️ ClassificationService :50051</text>
  <rect x="422" y="252" width="232" height="26" rx="6" fill="rgba(16,185,129,0.12)" stroke="#10b981" stroke-width="0.8"/><text x="538" y="269" text-anchor="middle" fill="#6ee7b7" font-size="10" font-weight="600">🔍 RetrievalService :50052</text>
  <rect x="664" y="252" width="244" height="26" rx="6" fill="rgba(16,185,129,0.12)" stroke="#10b981" stroke-width="0.8"/><text x="786" y="269" text-anchor="middle" fill="#6ee7b7" font-size="10" font-weight="600">🛡️ SafetyFilterService :50053</text>

  <!-- Layer 4: Data -->
  <rect x="160" y="294" width="760" height="68" rx="8" fill="url(#gDt)" stroke="#ec4899" stroke-width="1"/>
  <text x="540" y="314" text-anchor="middle" fill="#f9a8d4" font-size="11" font-weight="bold" letter-spacing="0.5">🗄️ 数据层 — Data Layer</text>
  <rect x="172" y="324" width="120" height="30" rx="5" fill="rgba(30,41,59,0.8)" stroke="rgba(148,163,184,0.2)" stroke-width="0.8"/><text x="232" y="337" text-anchor="middle" fill="#e2e8f0" font-size="9.5" font-weight="600">PostgreSQL 16</text><text x="232" y="350" text-anchor="middle" fill="#94a3b8" font-size="7.5">Dialogue · KB · Audit</text>
  <rect x="298" y="324" width="120" height="30" rx="5" fill="rgba(30,41,59,0.8)" stroke="rgba(148,163,184,0.2)" stroke-width="0.8"/><text x="358" y="337" text-anchor="middle" fill="#e2e8f0" font-size="9.5" font-weight="600">Redis 7.2</text><text x="358" y="350" text-anchor="middle" fill="#94a3b8" font-size="7.5">Session · Cache · Pub</text>
  <rect x="424" y="324" width="130" height="30" rx="5" fill="rgba(30,41,59,0.8)" stroke="rgba(148,163,184,0.2)" stroke-width="0.8"/><text x="489" y="337" text-anchor="middle" fill="#e2e8f0" font-size="9.5" font-weight="600">ES 8.19 + IK</text><text x="489" y="350" text-anchor="middle" fill="#94a3b8" font-size="7.5">BM25 Full-Text</text>
  <rect x="560" y="324" width="108" height="30" rx="5" fill="rgba(30,41,59,0.8)" stroke="rgba(148,163,184,0.2)" stroke-width="0.8"/><text x="614" y="337" text-anchor="middle" fill="#e2e8f0" font-size="9.5" font-weight="600">Milvus 2.4</text><text x="614" y="350" text-anchor="middle" fill="#94a3b8" font-size="7.5">Vector Embed</text>
  <rect x="674" y="324" width="108" height="30" rx="5" fill="rgba(30,41,59,0.8)" stroke="rgba(148,163,184,0.2)" stroke-width="0.8"/><text x="728" y="337" text-anchor="middle" fill="#e2e8f0" font-size="9.5" font-weight="600">MinIO</text><text x="728" y="350" text-anchor="middle" fill="#94a3b8" font-size="7.5">Doc Storage</text>
  <rect x="788" y="324" width="120" height="30" rx="5" fill="rgba(30,41,59,0.8)" stroke="rgba(148,163,184,0.2)" stroke-width="0.8"/><text x="848" y="337" text-anchor="middle" fill="#e2e8f0" font-size="9.5" font-weight="600">Kafka 3.7</text><text x="848" y="350" text-anchor="middle" fill="#94a3b8" font-size="7.5">MQ · Event Bus</text>

  <!-- Layer 5: Infra -->
  <rect x="160" y="370" width="760" height="44" rx="8" fill="rgba(139,92,246,0.06)" stroke="#475569" stroke-width="1" stroke-dasharray="5,3"/>
  <text x="540" y="388" text-anchor="middle" fill="#94a3b8" font-size="10" font-weight="bold" letter-spacing="0.5">🔧 基础设施 · Infrastructure (optional)</text>
  <rect x="280" y="396" width="180" height="14" rx="4" fill="rgba(139,92,246,0.12)" stroke="#8b5cf6" stroke-width="0.8"/><text x="370" y="406" text-anchor="middle" fill="#c4b5fd" font-size="8.5" font-weight="600">Temporal · Workflow Engine</text>
  <rect x="540" y="396" width="200" height="14" rx="4" fill="rgba(139,92,246,0.12)" stroke="#8b5cf6" stroke-width="0.8"/><text x="640" y="406" text-anchor="middle" fill="#c4b5fd" font-size="8.5" font-weight="600">Ollama / vLLM · Qwen2.5-7B</text>

  <!-- ===== RIGHT SIDEBAR ===== -->
  <!-- Security -->
  <rect x="930" y="56" width="160" height="105" rx="8" fill="rgba(30,41,59,0.6)" stroke="#334155" stroke-width="1"/>
  <text x="1010" y="78" text-anchor="middle" fill="#94a3b8" font-size="11" font-weight="bold">🛡️ 安全 & 合规</text>
  <rect x="938" y="88" width="144" height="22" rx="4" fill="rgba(245,158,11,0.12)" stroke="rgba(245,158,11,0.35)"/><text x="1010" y="103" text-anchor="middle" fill="#fcd34d" font-size="9.5" font-weight="600">PII 脱敏</text>
  <rect x="938" y="114" width="144" height="22" rx="4" fill="rgba(245,158,11,0.12)" stroke="rgba(245,158,11,0.35)"/><text x="1010" y="129" text-anchor="middle" fill="#fcd34d" font-size="9.5" font-weight="600">合规短语过滤</text>
  <rect x="938" y="140" width="144" height="18" rx="4" fill="rgba(15,23,42,0.5)" stroke="rgba(51,65,85,0.5)"/><text x="1010" y="153" text-anchor="middle" fill="#cbd5e1" font-size="9">审计日志 · 全量记录</text>

  <!-- Resilience -->
  <rect x="930" y="168" width="160" height="118" rx="8" fill="rgba(30,41,59,0.6)" stroke="#334155" stroke-width="1"/>
  <text x="1010" y="190" text-anchor="middle" fill="#94a3b8" font-size="11" font-weight="bold">🔀 弹性策略</text>
  <rect x="938" y="200" width="144" height="22" rx="4" fill="rgba(245,158,11,0.12)" stroke="rgba(245,158,11,0.35)"/><text x="1010" y="215" text-anchor="middle" fill="#fcd34d" font-size="9.5" font-weight="600">Circuit Breaker ×3</text>
  <rect x="938" y="226" width="144" height="30" rx="4" fill="rgba(15,23,42,0.5)" stroke="rgba(51,65,85,0.5)"/>
  <text x="1010" y="240" text-anchor="middle" fill="#cbd5e1" font-size="9">四级降级链</text>
  <text x="1010" y="253" text-anchor="middle" fill="#94a3b8" font-size="8">LLM → 检索 → 模板 → 兜底</text>
  <rect x="938" y="262" width="144" height="18" rx="4" fill="rgba(15,23,42,0.5)" stroke="rgba(51,65,85,0.5)"/><text x="1010" y="275" text-anchor="middle" fill="#cbd5e1" font-size="9">Graceful Degradation</text>

  <!-- Design -->
  <rect x="930" y="293" width="160" height="105" rx="8" fill="rgba(30,41,59,0.6)" stroke="#334155" stroke-width="1"/>
  <text x="1010" y="315" text-anchor="middle" fill="#94a3b8" font-size="11" font-weight="bold">📐 设计模式</text>
  <rect x="938" y="325" width="144" height="22" rx="4" fill="rgba(15,23,42,0.5)" stroke="rgba(51,65,85,0.5)"/><text x="1010" y="340" text-anchor="middle" fill="#cbd5e1" font-size="9.5">CAS 乐观锁 · Redis Lua</text>
  <rect x="938" y="351" width="144" height="22" rx="4" fill="rgba(15,23,42,0.5)" stroke="rgba(51,65,85,0.5)"/><text x="1010" y="366" text-anchor="middle" fill="#cbd5e1" font-size="9.5">RRF 融合排序</text>
  <rect x="938" y="377" width="144" height="18" rx="4" fill="rgba(15,23,42,0.5)" stroke="rgba(51,65,85,0.5)"/><text x="1010" y="390" text-anchor="middle" fill="#cbd5e1" font-size="9">Idempotency Key</text>

  <!-- ===== DATA FLOW ARROWS ===== -->
  <defs>
    <marker id="a" markerWidth="7" markerHeight="5" refX="7" refY="2.5" orient="auto"><path d="M0,0 L7,2.5 L0,5" fill="none" stroke="#475569" stroke-width="1"/></marker>
  </defs>
  <path d="M540,118 L540,126" stroke="#475569" stroke-width="1" marker-end="url(#a)"/>
  <path d="M540,216 L540,224" stroke="#475569" stroke-width="1" marker-end="url(#a)"/>
  <path d="M540,286 L540,294" stroke="#475569" stroke-width="1" marker-end="url(#a)"/>
  <path d="M540,362 L540,370" stroke="#475569" stroke-width="1" stroke-dasharray="4,3" marker-end="url(#a)"/>

  <!-- Bottom: key stats -->
  <rect x="160" y="425" width="760" height="18" rx="4" fill="rgba(30,41,59,0.4)"/>
  <text x="286" y="438" text-anchor="middle" fill="#6ee7b7" font-size="9" font-weight="600">612 Tests</text>
  <text x="426" y="438" text-anchor="middle" fill="#94a3b8" font-size="9">|</text>
  <text x="546" y="438" text-anchor="middle" fill="#7dd3fc" font-size="9">Python 3.11 · FastAPI 0.115+</text>
  <text x="686" y="438" text-anchor="middle" fill="#94a3b8" font-size="9">|</text>
  <text x="808" y="438" text-anchor="middle" fill="#fcd34d" font-size="9">Apache 2.0</text>
</svg>
